# xmcd
#
# Track frame offsets: 
#        150
#        20480
#        38200
#        61457
#        75982
#        96520
#        114965
#        127030
#        138477
#        164217
#        187820
#        209952
#        227210
#        240587
#        252302
#        270755
#
# Disc length: 3818 seconds
#
# Revision: 0
# Processed by: cddbd v1.5PL3 Copyright (c) Steve Scherf et al.
# Submitted via: ExactAudioCopy v0.95a3
#
DISCID=e30ee810
DTITLE=Various Artist - Sweet Home Chicago
DYEAR=2000
DGENRE=Blues
TTITLE0=Billy Branch and The Sons Of The Blues - Who
TTITLE1=Billy Branch and The Sons Of The Blues - Don't Start Me Talking
TTITLE2=Billy Branch and The Sons Of The Blues - Bluebird
TTITLE3=Billy Branch and The Sons Of The Blues - Manish Boy
TTITLE4=Billy Branch and The Sons Of The Blues - Green Grass
TTITLE5=Billy Branch and The Sons Of The Blues - Sweet Home Chicago
TTITLE6=Howard and The White Boys - Having A Good Time Is A Full Time Jo
TTITLE6=b
TTITLE7=Howard and The White Boys - Use Me
TTITLE8=Howard and The White Boys - Turn On Your Love Light
TTITLE9=Howard and The White Boys - Don't Take Advantage Me
TTITLE10=Fenton Robinson - Too Many drivers
TTITLE11=Fenton Robinson - Somebody Loan Me A Dime
TTITLE12=Fenton Robinson - I Feel So bad
TTITLE13=Fenton Robinson - Home At Last
TTITLE14=Fenton Robinson - Just A Little Bit
TTITLE15=Fenton Robinson - Reconsider Baby
EXTD=
EXTT0=
EXTT1=
EXTT2=
EXTT3=
EXTT4=
EXTT5=
EXTT6=
EXTT7=
EXTT8=
EXTT9=
EXTT10=
EXTT11=
EXTT12=
EXTT13=
EXTT14=
EXTT15=
PLAYORDER=
